<mxfile host="Electron" modified="2023-07-31T02:11:36.284Z" agent="Mozilla/5.0 (Windows NT 10.0; Win64; x64) AppleWebKit/537.36 (KHTML, like Gecko) draw.io/21.6.5 Chrome/114.0.5735.243 Electron/25.3.1 Safari/537.36" etag="RZ9V6U9oypWonISw4BDS" version="21.6.5" type="device">
  <diagram name="Page-1" id="_cm5AUgiQibvr29KKUmN">
    <mxGraphModel dx="1434" dy="844" grid="1" gridSize="10" guides="1" tooltips="1" connect="1" arrows="1" fold="1" page="1" pageScale="1" pageWidth="850" pageHeight="1100" math="0" shadow="0">
      <root>
        <mxCell id="0" />
        <mxCell id="1" parent="0" />
        <mxCell id="JooOBgMIKIIfKjl77hdR-1" value="" style="ellipse;html=1;shape=startState;fillColor=#000000;strokeColor=#ff0000;" vertex="1" parent="1">
          <mxGeometry x="410" width="30" height="30" as="geometry" />
        </mxCell>
        <mxCell id="JooOBgMIKIIfKjl77hdR-2" value="" style="edgeStyle=orthogonalEdgeStyle;html=1;verticalAlign=bottom;endArrow=open;endSize=8;strokeColor=#ff0000;rounded=0;" edge="1" parent="1" source="JooOBgMIKIIfKjl77hdR-1">
          <mxGeometry relative="1" as="geometry">
            <mxPoint x="425" y="80" as="targetPoint" />
          </mxGeometry>
        </mxCell>
        <mxCell id="JooOBgMIKIIfKjl77hdR-3" value="GAS LEAKAGE" style="rounded=1;whiteSpace=wrap;html=1;arcSize=40;fontColor=#000000;fillColor=#ffffc0;strokeColor=#ff0000;" vertex="1" parent="1">
          <mxGeometry x="365" y="80" width="120" height="40" as="geometry" />
        </mxCell>
        <mxCell id="JooOBgMIKIIfKjl77hdR-4" value="" style="edgeStyle=orthogonalEdgeStyle;html=1;verticalAlign=bottom;endArrow=open;endSize=8;strokeColor=#ff0000;rounded=0;" edge="1" parent="1" source="JooOBgMIKIIfKjl77hdR-3">
          <mxGeometry relative="1" as="geometry">
            <mxPoint x="425" y="160" as="targetPoint" />
          </mxGeometry>
        </mxCell>
        <mxCell id="JooOBgMIKIIfKjl77hdR-5" value="Situation Context" style="rounded=1;whiteSpace=wrap;html=1;arcSize=40;fontColor=#000000;fillColor=#ffffc0;strokeColor=#ff0000;" vertex="1" parent="1">
          <mxGeometry x="5" y="20" width="120" height="40" as="geometry" />
        </mxCell>
        <mxCell id="JooOBgMIKIIfKjl77hdR-6" value="" style="edgeStyle=orthogonalEdgeStyle;html=1;verticalAlign=bottom;endArrow=open;endSize=8;strokeColor=#ff0000;rounded=0;" edge="1" parent="1">
          <mxGeometry relative="1" as="geometry">
            <mxPoint x="64.5" y="240" as="targetPoint" />
            <mxPoint x="65" y="180" as="sourcePoint" />
          </mxGeometry>
        </mxCell>
        <mxCell id="JooOBgMIKIIfKjl77hdR-7" value="Flow" style="edgeLabel;html=1;align=center;verticalAlign=middle;resizable=0;points=[];" vertex="1" connectable="0" parent="JooOBgMIKIIfKjl77hdR-6">
          <mxGeometry x="-0.3333" y="3" relative="1" as="geometry">
            <mxPoint x="-2" y="10" as="offset" />
          </mxGeometry>
        </mxCell>
        <mxCell id="JooOBgMIKIIfKjl77hdR-8" value="Start Point" style="ellipse;html=1;shape=startState;fillColor=#000000;strokeColor=#ff0000;" vertex="1" parent="1">
          <mxGeometry x="50" y="250" width="30" height="30" as="geometry" />
        </mxCell>
        <mxCell id="JooOBgMIKIIfKjl77hdR-9" value="End Point" style="ellipse;html=1;shape=endState;fillColor=#000000;strokeColor=#ff0000;" vertex="1" parent="1">
          <mxGeometry x="50" y="290" width="30" height="30" as="geometry" />
        </mxCell>
        <mxCell id="JooOBgMIKIIfKjl77hdR-10" value="STEPS" style="shape=umlFrame;whiteSpace=wrap;html=1;pointerEvents=0;" vertex="1" parent="1">
          <mxGeometry y="70" width="130" height="90" as="geometry" />
        </mxCell>
        <mxCell id="JooOBgMIKIIfKjl77hdR-11" value="STEP 1" style="shape=umlFrame;whiteSpace=wrap;html=1;pointerEvents=0;" vertex="1" parent="1">
          <mxGeometry x="260" y="160" width="330" height="80" as="geometry" />
        </mxCell>
        <mxCell id="JooOBgMIKIIfKjl77hdR-12" value="IF YOU FIND A SULFURIC OR ROTTEN EGG SMELL&lt;br&gt;IN THE VICINITY, EVACUATE THE AREA IMMEDIATELY" style="text;html=1;align=center;verticalAlign=middle;resizable=0;points=[];autosize=1;strokeColor=none;fillColor=none;" vertex="1" parent="1">
          <mxGeometry x="255" y="190" width="340" height="40" as="geometry" />
        </mxCell>
        <mxCell id="JooOBgMIKIIfKjl77hdR-13" value="STEP 2" style="shape=umlFrame;whiteSpace=wrap;html=1;pointerEvents=0;" vertex="1" parent="1">
          <mxGeometry x="230" y="270" width="390" height="100" as="geometry" />
        </mxCell>
        <mxCell id="JooOBgMIKIIfKjl77hdR-14" value="IF POSSIBLE, ENCLOSE THE AREA YOU FOUND LEAKED GAS&lt;br&gt;BY COLSING THE DOORS" style="text;html=1;align=center;verticalAlign=middle;resizable=0;points=[];autosize=1;strokeColor=none;fillColor=none;" vertex="1" parent="1">
          <mxGeometry x="235.2" y="310" width="380" height="40" as="geometry" />
        </mxCell>
        <mxCell id="JooOBgMIKIIfKjl77hdR-15" value="" style="edgeStyle=orthogonalEdgeStyle;html=1;verticalAlign=bottom;endArrow=open;endSize=8;strokeColor=#ff0000;rounded=0;" edge="1" parent="1">
          <mxGeometry relative="1" as="geometry">
            <mxPoint x="425" y="270" as="targetPoint" />
            <mxPoint x="425" y="240" as="sourcePoint" />
          </mxGeometry>
        </mxCell>
        <mxCell id="JooOBgMIKIIfKjl77hdR-16" value="STEP 3" style="shape=umlFrame;whiteSpace=wrap;html=1;pointerEvents=0;" vertex="1" parent="1">
          <mxGeometry x="245" y="410" width="360" height="70" as="geometry" />
        </mxCell>
        <mxCell id="JooOBgMIKIIfKjl77hdR-17" value="CALL THE PROPERTY MANAGER AND ADVISE THEM OF&amp;nbsp;&lt;br&gt;THE SITUATION" style="text;html=1;align=center;verticalAlign=middle;resizable=0;points=[];autosize=1;strokeColor=none;fillColor=none;" vertex="1" parent="1">
          <mxGeometry x="245" y="440" width="350" height="40" as="geometry" />
        </mxCell>
        <mxCell id="JooOBgMIKIIfKjl77hdR-18" value="" style="edgeStyle=orthogonalEdgeStyle;html=1;verticalAlign=bottom;endArrow=open;endSize=8;strokeColor=#ff0000;rounded=0;" edge="1" parent="1">
          <mxGeometry relative="1" as="geometry">
            <mxPoint x="424" y="410" as="targetPoint" />
            <mxPoint x="424" y="370" as="sourcePoint" />
          </mxGeometry>
        </mxCell>
        <mxCell id="JooOBgMIKIIfKjl77hdR-19" value="STEP 4" style="shape=umlFrame;whiteSpace=wrap;html=1;pointerEvents=0;" vertex="1" parent="1">
          <mxGeometry x="245" y="520" width="360" height="90" as="geometry" />
        </mxCell>
        <mxCell id="JooOBgMIKIIfKjl77hdR-20" value="UPON CLEARENCE, CALL 911 OR THE GAS COMPANY&amp;nbsp;&lt;br&gt;AS DIRECTED BY THE PROPERTY MANAGER" style="text;html=1;align=center;verticalAlign=middle;resizable=0;points=[];autosize=1;strokeColor=none;fillColor=none;" vertex="1" parent="1">
          <mxGeometry x="255.2" y="555" width="340" height="40" as="geometry" />
        </mxCell>
        <mxCell id="JooOBgMIKIIfKjl77hdR-24" value="" style="edgeStyle=orthogonalEdgeStyle;html=1;verticalAlign=bottom;endArrow=open;endSize=8;strokeColor=#ff0000;rounded=0;" edge="1" parent="1">
          <mxGeometry relative="1" as="geometry">
            <mxPoint x="425" y="650" as="targetPoint" />
            <mxPoint x="425" y="610" as="sourcePoint" />
          </mxGeometry>
        </mxCell>
        <mxCell id="JooOBgMIKIIfKjl77hdR-26" value="Condition" style="rhombus;whiteSpace=wrap;html=1;fontColor=#000000;fillColor=#ffffc0;strokeColor=#ff0000;" vertex="1" parent="1">
          <mxGeometry x="30" y="330" width="80" height="40" as="geometry" />
        </mxCell>
        <mxCell id="JooOBgMIKIIfKjl77hdR-27" value="no" style="edgeStyle=orthogonalEdgeStyle;html=1;align=left;verticalAlign=bottom;endArrow=open;endSize=8;strokeColor=#ff0000;rounded=0;" edge="1" parent="1" source="JooOBgMIKIIfKjl77hdR-26">
          <mxGeometry x="-1" relative="1" as="geometry">
            <mxPoint x="210" y="350" as="targetPoint" />
          </mxGeometry>
        </mxCell>
        <mxCell id="JooOBgMIKIIfKjl77hdR-28" value="" style="edgeStyle=orthogonalEdgeStyle;html=1;align=left;verticalAlign=top;endArrow=open;endSize=8;strokeColor=#ff0000;rounded=0;" edge="1" parent="1">
          <mxGeometry x="0.2" y="60" relative="1" as="geometry">
            <mxPoint x="71" y="430" as="targetPoint" />
            <mxPoint x="71" y="370" as="sourcePoint" />
            <Array as="points">
              <mxPoint x="71" y="370" />
              <mxPoint x="71" y="370" />
            </Array>
            <mxPoint as="offset" />
          </mxGeometry>
        </mxCell>
        <mxCell id="JooOBgMIKIIfKjl77hdR-29" value="yes" style="text;html=1;align=center;verticalAlign=middle;resizable=0;points=[];autosize=1;strokeColor=none;fillColor=none;" vertex="1" parent="1">
          <mxGeometry x="70" y="370" width="40" height="30" as="geometry" />
        </mxCell>
        <mxCell id="JooOBgMIKIIfKjl77hdR-35" value="DISCLAIMER" style="swimlane;fontStyle=0;childLayout=stackLayout;horizontal=1;startSize=26;fillColor=#e51400;horizontalStack=0;resizeParent=1;resizeParentMax=0;resizeLast=0;collapsible=1;marginBottom=0;whiteSpace=wrap;html=1;fontColor=#ffffff;strokeColor=#B20000;" vertex="1" parent="1">
          <mxGeometry x="650" y="20" width="190" height="170" as="geometry" />
        </mxCell>
        <mxCell id="JooOBgMIKIIfKjl77hdR-36" value="THIS MODULE IS DESIGNED TO TEST AND REFINE YOUR DECISION MAKING. &lt;br&gt;&lt;br&gt;THE MODULE USES GENERAL PROCEDURES, REFER TO YOUR RESPECTIVE BUILDING PROTOCOLS AND ADHERE TO THEM DURING DUTY" style="text;strokeColor=#B20000;fillColor=#e51400;align=center;verticalAlign=top;spacingLeft=4;spacingRight=4;overflow=hidden;rotatable=0;points=[[0,0.5],[1,0.5]];portConstraint=eastwest;whiteSpace=wrap;html=1;fontColor=#ffffff;" vertex="1" parent="JooOBgMIKIIfKjl77hdR-35">
          <mxGeometry y="26" width="190" height="144" as="geometry" />
        </mxCell>
        <mxCell id="JooOBgMIKIIfKjl77hdR-37" value="" style="edgeStyle=orthogonalEdgeStyle;html=1;verticalAlign=bottom;endArrow=open;endSize=8;strokeColor=#ff0000;rounded=0;" edge="1" parent="1">
          <mxGeometry relative="1" as="geometry">
            <mxPoint x="425" y="520" as="targetPoint" />
            <mxPoint x="425" y="480" as="sourcePoint" />
          </mxGeometry>
        </mxCell>
        <mxCell id="JooOBgMIKIIfKjl77hdR-50" value="" style="shape=line;html=1;strokeWidth=6;strokeColor=#ff0000;" vertex="1" parent="1">
          <mxGeometry x="8" y="450" width="122" height="10" as="geometry" />
        </mxCell>
        <mxCell id="JooOBgMIKIIfKjl77hdR-51" value="" style="edgeStyle=orthogonalEdgeStyle;html=1;verticalAlign=bottom;endArrow=open;endSize=8;strokeColor=#ff0000;rounded=0;" edge="1" parent="1" source="JooOBgMIKIIfKjl77hdR-50">
          <mxGeometry relative="1" as="geometry">
            <mxPoint x="70" y="520" as="targetPoint" />
            <Array as="points">
              <mxPoint x="69" y="510" />
              <mxPoint x="70" y="510" />
            </Array>
          </mxGeometry>
        </mxCell>
        <mxCell id="JooOBgMIKIIfKjl77hdR-52" value="Fork" style="text;html=1;align=center;verticalAlign=middle;resizable=0;points=[];autosize=1;strokeColor=none;fillColor=none;" vertex="1" parent="1">
          <mxGeometry x="45" y="430" width="50" height="30" as="geometry" />
        </mxCell>
        <mxCell id="JooOBgMIKIIfKjl77hdR-53" value="ONCE THE FIRE DEPT. OR THE GAS COMPANY&amp;nbsp;&lt;br&gt;MECHANIC IS ON SITE, LET THEM TAKE CONTROL OF&amp;nbsp;&lt;br&gt;THE SITUATION AND FOLLOW THEIR INSTRUCTIONS" style="text;html=1;align=center;verticalAlign=middle;resizable=0;points=[];autosize=1;strokeColor=none;fillColor=none;" vertex="1" parent="1">
          <mxGeometry x="270" y="670" width="340" height="60" as="geometry" />
        </mxCell>
        <mxCell id="JooOBgMIKIIfKjl77hdR-54" value="STEP 5" style="shape=umlFrame;whiteSpace=wrap;html=1;pointerEvents=0;" vertex="1" parent="1">
          <mxGeometry x="245.2" y="650" width="360" height="80" as="geometry" />
        </mxCell>
        <mxCell id="JooOBgMIKIIfKjl77hdR-55" value="AFTER THE SITUATION IS RESOLVED, CONTACT YOUR PM&amp;nbsp;&lt;br&gt;AND UPDATE THEM ON THE SAME" style="text;html=1;align=center;verticalAlign=middle;resizable=0;points=[];autosize=1;strokeColor=none;fillColor=none;" vertex="1" parent="1">
          <mxGeometry x="240" y="800" width="370" height="40" as="geometry" />
        </mxCell>
        <mxCell id="JooOBgMIKIIfKjl77hdR-56" value="STEP 6" style="shape=umlFrame;whiteSpace=wrap;html=1;pointerEvents=0;" vertex="1" parent="1">
          <mxGeometry x="245" y="770" width="360" height="70" as="geometry" />
        </mxCell>
        <mxCell id="JooOBgMIKIIfKjl77hdR-66" value="" style="edgeStyle=orthogonalEdgeStyle;html=1;verticalAlign=bottom;endArrow=open;endSize=8;strokeColor=#ff0000;rounded=0;" edge="1" parent="1">
          <mxGeometry relative="1" as="geometry">
            <mxPoint x="424" y="770" as="targetPoint" />
            <mxPoint x="424" y="730" as="sourcePoint" />
          </mxGeometry>
        </mxCell>
        <mxCell id="JooOBgMIKIIfKjl77hdR-69" value="" style="edgeStyle=orthogonalEdgeStyle;html=1;verticalAlign=bottom;endArrow=open;endSize=8;strokeColor=#ff0000;rounded=0;" edge="1" parent="1">
          <mxGeometry relative="1" as="geometry">
            <mxPoint x="424" y="880" as="targetPoint" />
            <mxPoint x="424" y="840" as="sourcePoint" />
          </mxGeometry>
        </mxCell>
        <mxCell id="JooOBgMIKIIfKjl77hdR-70" value="" style="edgeStyle=orthogonalEdgeStyle;html=1;verticalAlign=bottom;endArrow=open;endSize=8;strokeColor=#ff0000;rounded=0;" edge="1" parent="1" target="JooOBgMIKIIfKjl77hdR-71">
          <mxGeometry relative="1" as="geometry">
            <mxPoint x="425" y="1020" as="targetPoint" />
            <mxPoint x="424.9999999999999" y="950" as="sourcePoint" />
          </mxGeometry>
        </mxCell>
        <mxCell id="JooOBgMIKIIfKjl77hdR-71" value="" style="ellipse;html=1;shape=endState;fillColor=#000000;strokeColor=#ff0000;" vertex="1" parent="1">
          <mxGeometry x="410" y="1005" width="30" height="30" as="geometry" />
        </mxCell>
        <mxCell id="JooOBgMIKIIfKjl77hdR-72" value="MAKE A DETAILED INCIDENT REPORT WITH TIME STAMPS &lt;br&gt;OF EVERY STEP." style="text;html=1;align=center;verticalAlign=middle;resizable=0;points=[];autosize=1;strokeColor=none;fillColor=none;" vertex="1" parent="1">
          <mxGeometry x="245" y="910" width="360" height="40" as="geometry" />
        </mxCell>
        <mxCell id="JooOBgMIKIIfKjl77hdR-73" value="STEP 7" style="shape=umlFrame;whiteSpace=wrap;html=1;pointerEvents=0;" vertex="1" parent="1">
          <mxGeometry x="245" y="880" width="360" height="70" as="geometry" />
        </mxCell>
      </root>
    </mxGraphModel>
  </diagram>
</mxfile>
